<svg width="362" height="185" viewBox="0 0 362 185" fill="none" xmlns="http://www.w3.org/2000/svg">
<path d="M76.8516 114.797L113.555 58.5469C117.539 58.7812 121.312 59.0859 124.875 59.4609C128.438 59.7891 131.555 60.1406 134.227 60.5156C137.367 60.9375 140.273 61.3594 142.945 61.7812V77.9531L129.867 75V147.562L142.945 144.609V162.047C137.977 163.031 133.078 163.758 128.25 164.227C123.422 164.695 118.523 165.047 113.555 165.281V88.0781L76.8516 145.031L39.5859 87.9375V165.281C35.6016 165.047 31.8281 164.766 28.2656 164.438C24.7031 164.109 21.5859 163.758 18.9141 163.383C15.7734 162.961 12.8672 162.516 10.1953 162.047V144.609L23.2734 147.562V74.8594L10.1953 77.8125V61.6406C12.8672 61.2188 15.7734 60.7969 18.9141 60.375C21.5859 60 24.7031 59.6484 28.2656 59.3203C31.8281 58.9453 35.6016 58.6406 39.5859 58.4062L76.8516 114.797Z" fill="#FF6107"/>
<path d="M187.969 57.8438C195.188 57.8438 201.984 58.4766 208.359 59.7422C214.734 61.0078 220.312 62.7656 225.094 65.0156C229.875 67.2656 233.648 69.9844 236.414 73.1719C239.18 76.3125 240.562 79.7812 240.562 83.5781V139.547C240.562 143.344 239.18 146.836 236.414 150.023C233.648 153.164 229.875 155.859 225.094 158.109C220.312 160.359 214.734 162.117 208.359 163.383C201.984 164.648 195.188 165.281 187.969 165.281C183.938 165.281 179.812 165.141 175.594 164.859C171.375 164.531 167.273 164.133 163.289 163.664C159.352 163.148 155.648 162.562 152.18 161.906C148.711 161.25 145.734 160.547 143.25 159.797V63.3281C145.734 62.5781 148.711 61.875 152.18 61.2188C155.648 60.5625 159.352 60 163.289 59.5312C167.273 59.0156 171.375 58.6172 175.594 58.3359C179.812 58.0078 183.938 57.8438 187.969 57.8438ZM188.25 73.7344C183.984 73.7344 180.281 73.875 177.141 74.1562C174 74.3906 171.305 74.7188 169.055 75.1406C166.805 75.5156 164.93 75.9375 163.43 76.4062C161.977 76.8281 160.781 77.2031 159.844 77.5312V145.594C160.781 145.969 161.977 146.367 163.43 146.789C164.93 147.211 166.805 147.633 169.055 148.055C171.305 148.43 174 148.758 177.141 149.039C180.281 149.273 183.984 149.391 188.25 149.391C193.5 149.391 198.211 148.969 202.383 148.125C206.602 147.281 210.141 146.156 213 144.75C215.906 143.344 218.133 141.727 219.68 139.898C221.227 138.023 222 136.078 222 134.062V89.0625C222 87.0469 221.227 85.125 219.68 83.2969C218.133 81.4219 215.906 79.7812 213 78.375C210.141 76.9688 206.602 75.8438 202.383 75C198.211 74.1562 193.5 73.7344 188.25 73.7344Z" fill="#FF6107"/>
<path d="M290.211 57.9844C297.43 57.9844 305.047 58.2422 313.062 58.7578C321.125 59.2734 329.586 60.2813 338.445 61.7812V79.6406C334.508 78.5156 330.523 77.6016 326.492 76.8984C322.461 76.1484 318.406 75.5625 314.328 75.1406C310.297 74.7188 306.266 74.4141 302.234 74.2266C298.203 74.0391 294.195 73.9219 290.211 73.875C288.289 73.875 286.156 73.9219 283.812 74.0156C281.516 74.0625 279.031 74.1562 276.359 74.2969C273.734 74.4375 270.992 74.6484 268.133 74.9297C265.273 75.2109 262.367 75.5625 259.414 75.9844V101.578H320.867V118.875H259.414V165H242.117V61.7812C250.883 60.2813 259.297 59.2734 267.359 58.7578C275.469 58.2422 283.086 57.9844 290.211 57.9844Z" fill="#FF6107"/>
</svg>
